# xmcd
#
# Track frame offsets:
#	150
#	12910
#	27015
#	44987
#	59157
#	81795
#	93032
#	112497
#	127940
#	147017
#
# Disc length: 2081 seconds
#
# Revision: 0
# Processed by: cddbd v1.5.1PL0 Copyright (c) Steve Scherf et al.
# Submitted via: dBpowerAMP V4.0
#
DISCID=88081f0a
DTITLE=Various Artist - The Founding Fathers Spread His Word
DYEAR=1900
DGENRE=
TTITLE0=Jesus Will Outshine Them All - Les Beasley
TTITLE1=Led Out Of Bondage - Ben Speer
TTITLE2=Death Ain't No Big Deal - Jake Hess
TTITLE3=I'll Walk Dem Golden Stairs - Brock Speer
TTITLE4=We Shall See Jesus - Glen Payne
TTITLE5=Take Off Those Old Rags Lazarus - Rex Nelon
TTITLE6=Speak His Name - James Blackwood
TTITLE7=This Ole House - George Younce
TTITLE8=I Lost It All To FInd Everything - Hovie Lister
TTITLE9=Classic Comedy Story - J.D. Sumner
EXTD=This is actually of the Southern Gospel Genre\nThese are some of the most popular songs by some of the founding fathers of Southern Gospel - who have passed on
EXTT0=
EXTT1=
EXTT2=
EXTT3=
EXTT4=
EXTT5=
EXTT6=
EXTT7=
EXTT8=
EXTT9=
PLAYORDER=
